<?xml version="1.0"?>
<svg xmlns="http://www.w3.org/2000/svg" xmlns:xlink="http://www.w3.org/1999/xlink" version="1.1" id="Layer_1" x="0px" y="0px" viewBox="0 0 512 512" style="enable-background:new 0 0 512 512;" xml:space="preserve" width="512px" height="512px"><g><g>
	<g>
		<path d="M378.896,106.667c-4.958,0-9.927,0.177-14.917,0.521l20.042-10.979c3.417-1.875,5.542-5.458,5.542-9.354v-8.25    l12.458,3.979c2.719,0.854,5.74,0.573,8.313-0.781l74.74-40.417c4.604-2.49,6.719-7.948,5-12.885    c-1.656-4.76-13.51-28.5-84.74-28.5C358.042,0,290.25,46.167,256,99.115C221.75,46.167,153.958,0,106.667,0    c-71.229,0-83.083,23.74-84.74,28.5c-1.719,4.938,0.396,10.396,5,12.885l74.74,40.417c2.542,1.354,5.563,1.635,8.313,0.781    l12.458-3.979v8.25c0,3.896,2.125,7.479,5.542,9.354l20.042,10.979c-4.99-0.344-9.958-0.521-14.917-0.521    C55.979,106.667,0,147.042,0,202.667c0,3.135,1.375,6.115,3.771,8.135c2.385,2.021,5.552,2.906,8.646,2.385L85.563,201    c3.302-0.552,6.156-2.615,7.708-5.583l6.438-12.354l3.896,7.479c2.135,4.083,6.635,6.302,11.208,5.583l82.779-13.797    c-22.087,64.372-18.648,156.939-12.966,217.408c-98.07,13.785-163.292,53.958-163.292,101.598C21.333,507.229,26.104,512,32,512    h448c5.896,0,10.667-4.771,10.667-10.667c0-53.671-83.099-97.385-198.48-105.246c-21.941-56.22-45.352-144.297-19.258-220.672    l124.259,20.71c4.51,0.698,9.063-1.5,11.208-5.583l3.896-7.479l6.438,12.354c1.552,2.969,4.406,5.031,7.708,5.583l73.146,12.188    c0.583,0.094,1.167,0.146,1.75,0.146c2.51,0,4.958-0.885,6.896-2.531c2.396-2.021,3.771-5,3.771-8.135    C512,147.042,456.021,106.667,378.896,106.667z M318.573,453.344c-0.259-0.453-7.766-13.862-17.202-35.23    c86.75,7.849,154.517,37.671,166.181,72.553H44.479c10.607-31.126,66.841-58.74,142.348-69.553    c2.552,22.29,4.965,37.191,5.319,39.314c0.865,5.135,5.313,8.906,10.521,8.906h106.667c3.813,0,7.323-2.031,9.24-5.323    C320.469,460.708,320.479,456.646,318.573,453.344z M291.615,448h-79.781c-5.483-38.143-24.056-189.092,10.297-269.762    l28.875-4.813C216.91,281.379,269.848,404.526,291.615,448z M435.188,180.833l-13.438-25.771c-3.667-7.042-15.229-7.042-18.917,0    l-9.771,18.75L257.75,151.26c-1.146-0.188-2.354-0.188-3.5,0l-135.313,22.552l-9.771-18.75c-3.688-7.042-15.25-7.042-18.917,0    l-13.438,25.771l-54.052,9C31.094,153.333,74.938,128,133.104,128c29.125,0,59.125,6.667,89.167,19.802    c5.229,2.313,11.333,0.063,13.844-5.063c2.521-5.125,0.552-11.323-4.448-14.063l-87.896-48.146V64    c0-3.406-1.625-6.604-4.375-8.615c-2.76-2-6.323-2.563-9.531-1.552l-22.042,7.042L50.677,29.979    c8.708-4.104,25.281-8.646,55.99-8.646c44.594,0,113.823,51.5,139.771,103.979c3.604,7.271,15.521,7.271,19.125,0    C291.51,72.833,360.74,21.333,405.333,21.333c30.927,0,47.521,4.615,56.104,8.573l-57.26,30.969l-22.042-7.042    c-3.25-1.031-6.781-0.469-9.531,1.552c-2.75,2.01-4.375,5.208-4.375,8.615v16.531l-87.896,48.146    c-5,2.74-6.969,8.938-4.448,14.063c2.51,5.125,8.615,7.375,13.844,5.063C319.771,134.667,349.771,128,378.896,128    c58.167,0,102.01,25.333,110.344,61.833L435.188,180.833z" data-original="#000000" class="active-path" data-old_color="#000000" fill="#FFFFFF"/>
	</g>
</g></g> </svg>
