<?xml version="1.0"?>
<svg xmlns="http://www.w3.org/2000/svg" xmlns:xlink="http://www.w3.org/1999/xlink" version="1.1" id="Layer_1" x="0px" y="0px" viewBox="0 0 496 496" style="enable-background:new 0 0 496 496;" xml:space="preserve" width="512px" height="512px"><g><g>
	<g>
		<g>
			<path d="M405.376,249.552c0-84.848-69.92-153.872-155.856-153.872c-6.864,0-13.808,0.464-20.752,1.376     c-14.192-7.648-30.08-11.648-46.304-11.648c-53.52,0-97.072,43.056-97.072,95.984c0,15.008,3.568,29.808,10.368,43.136     c-1.376,8.256-2.064,16.64-2.064,25.024c0,84.848,69.904,153.872,155.824,153.872c7.712,0,15.488-0.576,23.152-1.696     c12.752,5.808,26.752,8.864,40.816,8.864c53.52,0,97.072-43.056,97.072-95.952c0-13.056-2.576-25.648-7.68-37.488     C404.544,268.048,405.376,258.8,405.376,249.552z M313.488,378.592c-10.912,0-21.296-2.576-30.896-7.632     c-2.32-1.232-4.88-1.856-7.472-1.856c-0.944,0-1.904,0.08-2.848,0.24c-7.488,1.36-15.152,2.048-22.736,2.048     c-68.272,0-123.824-54.672-123.824-121.872c0-8.224,0.848-16.464,2.512-24.48c0.816-3.92,0.128-8-1.92-11.44     c-5.824-9.744-8.896-20.896-8.896-32.24c0-35.28,29.184-63.984,65.072-63.984c12.288,0,24.288,3.424,34.688,9.888     c3.312,2.064,7.28,2.864,11.104,2.192c7.088-1.2,14.24-1.808,21.248-1.808c68.288,0,123.856,54.672,123.856,121.872     c0,8.784-0.944,17.584-2.832,26.176c-0.784,3.584-0.32,7.328,1.328,10.608c4.432,8.848,6.688,18.368,6.688,28.32     C378.56,349.904,349.376,378.592,313.488,378.592z" data-original="#000000" class="active-path" data-old_color="#000000" fill="#1273EB"/>
			<path d="M365.232,0H130.704C57.408,0,0,57.424,0,130.736v234.528C0,438.576,57.408,496,130.704,496h234.528     C438.56,496,496,438.576,496,365.264V130.736C496,57.424,438.56,0,365.232,0z M464,365.264C464,421.552,421.536,464,365.232,464     H130.704C74.432,464,32,421.552,32,365.264V130.736C32,74.448,74.432,32,130.704,32h234.528C421.536,32,464,74.448,464,130.736     V365.264z" data-original="#000000" class="active-path" data-old_color="#000000" fill="#1273EB"/>
		</g>
	</g>
</g><g>
	<g>
		<path d="M306.768,259.856c-3.904-7.152-9.696-12.88-17.12-16.976c-3.52-1.968-7.6-3.744-12.224-5.328    c-3.856-1.296-10.384-3.184-19.744-5.536l-12.064-3.104c-12.512-2.736-17.168-5.136-18.496-5.984    c-1.728-1.104-2.944-2.496-3.872-4.4c-1.136-2.336-1.712-5.392-1.712-9.104c0-8.48,3.024-11.952,5.648-14    c4.88-3.808,13.248-5.824,24.208-5.824c9.968,0,17.472,2.048,22.288,6.096c2.688,2.272,6.336,6.4,6.672,16.064    c0.32,8.816,7.92,15.68,16.56,15.424c8.832-0.32,15.744-7.728,15.424-16.56c-0.576-16.368-6.832-30.016-18.08-39.44    c-10.72-9.024-25.152-13.6-42.864-13.6c-18.448,0-33.216,4.256-43.952,12.64c-8.16,6.416-17.904,18.432-17.904,39.2    c0,8.592,1.664,16.368,4.928,23.072c3.488,7.184,8.64,13.024,15.424,17.392c6.464,4.112,15.648,7.376,27.456,9.888l12.64,3.296    c8.112,2.048,13.84,3.648,17.168,4.768c2.608,0.912,4.912,1.856,6.928,2.992c2.176,1.2,3.648,2.592,4.608,4.352    c1.104,2.032,1.664,4.816,1.664,8.288c0,9.728-3.552,13.872-6.608,16.368c-5.408,4.4-13.872,6.624-25.184,6.624    c-11.104,0-19.536-2.288-25.072-6.816c-3.12-2.544-7.328-7.184-7.872-18.032c-0.432-8.832-7.856-15.552-16.768-15.184    c-8.832,0.432-15.632,7.952-15.184,16.768c0.864,17.456,7.456,31.328,19.568,41.216c11.392,9.312,26.64,14.032,45.328,14.032    c18.864,0,34.128-4.656,45.408-13.792c12.032-9.824,18.384-24.048,18.384-41.168C312.352,274.592,310.48,266.64,306.768,259.856z" data-original="#000000" class="active-path" data-old_color="#000000" fill="#1273EB"/>
	</g>
</g></g> </svg>
